<svg width="74" height="76" viewBox="0 0 74 76" fill="none" xmlns="http://www.w3.org/2000/svg">
<path d="M1.47216 6.83008L6.45849 64.1772V69.125C6.46288 72.5752 9.2583 75.3706 12.7085 75.375H25.2085C28.6587 75.3706 31.4541 72.5752 31.4585 69.125V64.1772L36.4443 6.83008L37.6714 1.92871C37.7646 1.55518 37.6811 1.15918 37.4438 0.855957C37.207 0.552734 36.8437 0.375 36.4585 0.375H1.45849C1.07324 0.375 0.710443 0.552734 0.47265 0.855957C0.235834 1.15918 0.152338 1.55518 0.245599 1.92871L1.47216 6.83008ZM30.2588 49.125H7.65869L7.00732 41.625H30.9097L30.2588 49.125ZM30.0415 51.625L29.0625 62.875H8.85498L7.87597 51.625H30.0415ZM14.5835 65.375H23.3335V66.625C23.3335 67.3154 22.7739 67.875 22.0835 67.875H15.8335C15.1431 67.875 14.5835 67.3154 14.5835 66.625V65.375ZM28.9585 69.125C28.9585 71.1958 27.2793 72.875 25.2085 72.875H12.7085C10.6377 72.875 8.95849 71.1958 8.95849 69.125V65.375H12.0835V66.625C12.0835 68.6958 13.7627 70.375 15.8335 70.375H22.0835C24.1543 70.375 25.8335 68.6958 25.8335 66.625V65.375H28.9585V69.125ZM31.127 39.125H6.79003L4.07226 7.875H33.8452L31.127 39.125ZM34.8569 2.875L34.2319 5.375H3.68456L3.05956 2.875H34.8569Z" fill="#69B99D"/>
<path d="M47.7085 75.375H65.2085C67.2793 75.375 68.9585 73.6958 68.9585 71.625V24.125C68.9556 21.6426 67.4834 19.3979 65.2085 18.4048V14.125C65.2085 13.4346 64.6489 12.875 63.9585 12.875H60.2085V7.875H72.7085C73.2139 7.875 73.67 7.57031 73.8633 7.10352C74.0567 6.63672 73.9493 6.09863 73.5923 5.74121L71.0923 3.24121C70.9014 3.05029 70.6533 2.92627 70.3863 2.88721L52.8862 0.387207C52.8272 0.379395 52.7676 0.375 52.7085 0.375H47.7085C47.0181 0.375 46.4585 0.93457 46.4585 1.625V6.625C46.4585 7.31543 47.0181 7.875 47.7085 7.875H52.7085V12.875H48.9585C48.2681 12.875 47.7085 13.4346 47.7085 14.125V18.4048C45.4336 19.3979 43.9614 21.6426 43.9585 24.125V71.625C43.9585 73.6958 45.6377 75.375 47.7085 75.375ZM66.4585 30.375H46.4585V27.875H66.4585V30.375ZM66.4585 57.875H46.4585V32.875H66.4585V57.875ZM65.2085 72.875H47.7085C47.0181 72.875 46.4585 72.3154 46.4585 71.625V60.375H66.4585V71.625C66.4585 72.3154 65.8989 72.875 65.2085 72.875ZM48.9585 2.875H52.6201L69.6197 5.30371L69.6909 5.375H48.9585V2.875ZM55.2085 7.875H57.7085V12.875H55.2085V7.875ZM50.2085 15.375H62.7085V17.875H50.2085V15.375ZM50.2085 20.375H62.7085C64.7793 20.375 66.4585 22.0542 66.4585 24.125V25.375H46.4585V24.125C46.4585 22.0542 48.1377 20.375 50.2085 20.375Z" fill="#69B99D"/>
</svg>
